<svg width="50" height="49" viewBox="0 0 50 49" fill="none" xmlns="http://www.w3.org/2000/svg">
<path d="M25 0L25.4228 11.3299C25.6814 18.2615 31.2811 23.8204 38.2599 24.0738L50 24.5L38.2599 24.9262C31.2811 25.1796 25.6814 30.7385 25.4228 37.6701L25 49L24.5772 37.6701C24.3186 30.7385 18.7189 25.1796 11.7401 24.9262L0 24.5L11.7401 24.0738C18.7189 23.8204 24.3186 18.2615 24.5772 11.3299L25 0Z" fill="#F27B43"/>
<path d="M37.3333 3.28236L31.996 13.3043C28.7306 19.4357 30.7817 27.0308 36.698 30.7161L46.6506 36.9155L36.2689 31.4543C30.0975 28.2078 22.4496 30.2411 18.7363 36.1156L12.6667 45.7176L18.004 35.6957C21.2694 29.5643 19.2183 21.9692 13.302 18.2839L3.34937 12.0844L13.7311 17.5457C19.9025 20.7922 27.5504 18.7588 31.2637 12.8844L37.3333 3.28236Z" fill="#F27B43"/>
<path d="M46.362 12.25L36.6946 18.2786C30.7802 21.9669 28.733 29.563 32.0016 35.6928L37.5 46.0043L31.2584 36.119C27.548 30.2426 19.9012 28.2054 13.7281 31.4487L3.63804 36.75L13.3054 30.7214C19.2198 27.0331 21.2669 19.437 17.9984 13.3072L12.5 2.99565L18.7416 12.881C22.452 18.7574 30.0988 20.7946 36.2719 17.5513L46.362 12.25Z" fill="#F27B43"/>
</svg>
