<svg width="189" height="170" viewBox="0 0 189 170" fill="none" xmlns="http://www.w3.org/2000/svg">
<path d="M130.632 155.396C116.047 163.24 99.3971 166.396 82.953 164.432C66.5089 162.468 51.0708 155.48 38.7435 144.421C26.4162 133.362 17.7999 118.77 14.0692 102.634C10.3385 86.499 11.675 69.6057 17.8966 54.2579L18.6483 54.5626C12.4894 69.7558 11.1663 86.4789 14.8594 102.452C18.5525 118.424 27.0821 132.869 39.2851 143.817C51.4882 154.765 66.7708 161.682 83.0492 163.627C99.3276 165.571 115.81 162.447 130.248 154.681L130.632 155.396Z" fill="#F27B43"/>
<path d="M54.3681 13.6042C68.9532 5.75951 85.6029 2.60406 102.047 4.56812C118.491 6.53219 133.929 13.5202 146.256 24.5793C158.584 35.6384 167.2 50.2304 170.931 66.3657C174.662 82.501 173.325 99.3943 167.103 114.742L166.352 114.437C172.511 99.2442 173.834 82.5211 170.141 66.5484C166.448 50.5757 157.918 36.1307 145.715 25.183C133.512 14.2353 118.229 7.31776 101.951 5.37348C85.6724 3.4292 69.1905 6.55286 54.7523 14.3186L54.3681 13.6042Z" fill="#F27B43"/>
<path d="M53.5 0L53.611 4.01884C53.7974 10.772 59.228 16.2026 65.9812 16.389L70 16.5L65.9812 16.611C59.228 16.7974 53.7974 22.228 53.611 28.9812L53.5 33L53.389 28.9812C53.2026 22.228 47.772 16.7974 41.0188 16.611L37 16.5L41.0188 16.389C47.772 16.2026 53.2026 10.772 53.389 4.01883L53.5 0Z" fill="#F27B43"/>
<path d="M183.027 108.101L179.44 109.621C173.22 112.258 170.145 119.296 172.435 125.652L173.755 129.316L172.234 125.73C169.597 119.51 162.56 116.435 156.204 118.724L152.54 120.045L156.126 118.524C162.346 115.887 165.421 108.85 163.131 102.494L161.811 98.8293L163.332 102.416C165.969 108.635 173.006 111.711 179.362 109.421L183.027 108.101Z" fill="#F27B43"/>
<path d="M132.799 169.107L132.624 165.216C132.32 158.467 126.796 153.132 120.04 153.063L116.145 153.023L120.037 152.848C126.785 152.544 132.121 147.02 132.19 140.264L132.23 136.369L132.405 140.26C132.709 147.009 138.233 152.345 144.988 152.414L148.883 152.454L144.992 152.629C138.243 152.933 132.908 158.457 132.839 165.212L132.799 169.107Z" fill="#F27B43"/>
<path d="M34.3634 52.3255L30.5058 52.8663C23.8155 53.8041 19.0238 59.806 19.591 66.5379L19.9181 70.4194L19.3773 66.5618C18.4395 59.8715 12.4376 55.0799 5.70574 55.6471L1.82415 55.9742L5.68178 55.4334C12.3721 54.4956 17.1637 48.4937 16.5965 41.7618L16.2695 37.8802L16.8102 41.7378C17.748 48.4281 23.7499 53.2198 30.4818 52.6526L34.3634 52.3255Z" fill="#F27B43"/>
<path d="M95.245 73.892C98.017 73.892 100.25 71.659 100.25 68.81C100.25 66.038 98.017 63.805 95.245 63.805C92.396 63.805 90.163 66.038 90.163 68.81C90.163 71.659 92.396 73.892 95.245 73.892ZM84.465 66.5V92.526C91.472 92.526 93.936 95.991 93.936 105H95.245V78.974C88.238 78.974 85.774 75.663 85.774 66.5H84.465Z" fill="#F27B43"/>
</svg>
