<svg width="56" height="56" viewBox="0 0 56 56" fill="none" xmlns="http://www.w3.org/2000/svg">
<circle cx="28" cy="28" r="28" fill="#FF6843"/>
<path fill-rule="evenodd" clip-rule="evenodd" d="M32.2423 23.7572C31.8517 23.3667 31.2186 23.3667 30.828 23.7572L25.4641 29.1212V25.8786C25.4641 25.3263 25.0164 24.8786 24.4641 24.8786C23.9118 24.8786 23.4641 25.3263 23.4641 25.8786V31.5354C23.4641 31.8006 23.5694 32.055 23.757 32.2425C23.9445 32.4301 24.1989 32.5354 24.4641 32.5354H30.1209C30.6732 32.5354 31.1209 32.0877 31.1209 31.5354C31.1209 30.9831 30.6732 30.5354 30.1209 30.5354L26.8783 30.5354L32.2423 25.1715C32.6328 24.7809 32.6328 24.1478 32.2423 23.7572Z" fill="white"/>
</svg>
