<svg width="52" height="51" viewBox="0 0 52 51" fill="none" xmlns="http://www.w3.org/2000/svg">
<path d="M1 18.5422V1H19.7777C23.877 1 27.9363 1.81329 31.7239 3.39362C35.5115 4.97396 38.9535 7.29049 41.8531 10.2113C44.7528 13.1321 47.0532 16.6 48.6228 20.4172C50.1923 24.2343 51.0002 28.3257 51 32.4578V50H32.2252H32.2251C28.1256 50.0004 24.0659 49.1873 20.278 47.6072C16.4901 46.027 13.0477 43.7105 10.1478 40.7897C7.24793 37.8688 4.94723 34.4008 3.3775 30.5835C1.80776 26.7662 0.999818 22.6745 1 18.5422V18.5422Z" stroke="#00FF85" stroke-width="2"/>
<path d="M21 24.75L24.75 28.5L32.25 21" stroke="#00FF85" stroke-width="1.5" stroke-linecap="round" stroke-linejoin="round"/>
</svg>
