<svg width="51" height="51" viewBox="0 0 51 51" fill="none" xmlns="http://www.w3.org/2000/svg">
<path fill-rule="evenodd" clip-rule="evenodd" d="M25.5 8.5C16.1112 8.5 8.5 16.1112 8.5 25.5C8.5 34.8888 16.1112 42.5 25.5 42.5C34.8888 42.5 42.5 34.8888 42.5 25.5C42.5 16.1112 34.8888 8.5 25.5 8.5ZM4.25 25.5C4.25 13.7639 13.7639 4.25 25.5 4.25C37.236 4.25 46.75 13.7639 46.75 25.5C46.75 37.236 37.2361 46.75 25.5 46.75C13.7639 46.75 4.25 37.2361 4.25 25.5ZM25.5 17C26.6736 17 27.625 17.9514 27.625 19.125V26.7448L30.3724 23.9974C31.2023 23.1675 32.5477 23.1675 33.3776 23.9974C34.2075 24.8273 34.2075 26.1727 33.3776 27.0026L27.0026 33.3776C26.6041 33.7761 26.0636 34 25.5 34C24.9364 34 24.3959 33.7761 23.9974 33.3776L17.6224 27.0026C16.7925 26.1727 16.7925 24.8273 17.6224 23.9974C18.4523 23.1675 19.7977 23.1675 20.6276 23.9974L23.375 26.7448V19.125C23.375 17.9514 24.3264 17 25.5 17Z" fill="white"/>
</svg>
