<svg width="18" height="22" viewBox="0 0 18 22" fill="none" xmlns="http://www.w3.org/2000/svg">
<path d="M13.068 10.7693C13.3956 10.5394 13.7556 10.2882 14.1012 9.98405C14.1336 9.95575 14.1768 9.93806 14.22 9.93806H17.28C17.676 9.93806 18 9.61971 18 9.23062V8.52318C18 8.13408 17.676 7.81573 17.28 7.81573H15.8256C15.7068 7.81573 15.6204 7.70608 15.6528 7.59289C15.9804 6.41853 15.786 5.41396 15.75 5.24418C15.4728 3.91772 14.7024 3.10062 14.1552 2.52406C13.8636 2.21632 12.6432 0.974756 10.5804 0.352206C8.3232 -0.32694 6.3576 0.125824 4.8852 0.465397C4.032 0.663481 3.3444 0.900474 2.8728 1.08441V4.46245C2.9592 4.40586 3.1032 4.32096 3.2832 4.21838C5.5872 2.93084 9.4032 2.02885 11.4624 3.72317C11.6892 3.91065 12.3948 4.50844 12.5532 5.45287C12.6936 6.30888 12.3552 7.13659 11.8764 7.74499C11.8404 7.78744 11.79 7.81573 11.7324 7.81573H0.72C0.324 7.81573 0 8.13408 0 8.52318V9.23062C0 9.61971 0.324 9.93806 0.72 9.93806H6.7572C6.948 9.93806 7.0092 10.1892 6.8364 10.2741C6.5664 10.4085 6.2748 10.5606 5.9688 10.7304C5.5656 10.9568 5.2524 11.1301 4.878 11.3883C4.608 11.5793 4.3164 11.7845 4.0248 12.0179C3.9924 12.0427 3.9528 12.0604 3.9096 12.0604H0.72C0.324 12.0604 0 12.3787 0 12.7678V13.4753C0 13.8644 0.324 14.1827 0.72 14.1827H2.1636C2.286 14.1827 2.3724 14.2995 2.3364 14.4126C1.9476 15.6507 2.1564 16.7366 2.1924 16.9135C2.4804 18.2965 3.3048 19.149 3.7872 19.6336C5.076 20.9317 6.5448 21.3385 7.5204 21.6109C10.0512 22.3148 12.168 21.8868 13.0572 21.6922C14.058 21.4765 15.0696 21.0732 15.0696 21.0732C15.4152 20.9388 15.696 20.815 15.894 20.723L15.7932 17.1964C15.5448 17.3839 15.1596 17.6598 14.6592 17.9392C12.3372 19.2445 8.5428 20.1323 6.48 18.4345C6.2532 18.247 5.5476 17.6492 5.3892 16.7048C5.2344 15.7709 5.6592 14.8654 6.2028 14.2464C6.2388 14.2075 6.2856 14.1827 6.3396 14.1827H17.28C17.676 14.1827 18 13.8644 18 13.4753V12.7678C18 12.3787 17.676 12.0604 17.28 12.0604H11.502C11.3148 12.0604 11.2536 11.8128 11.4192 11.7279C11.5992 11.6359 11.7864 11.5369 11.9772 11.4272C12.3804 11.2044 12.6936 11.0311 13.068 10.7693Z" fill="#FCF050"/>
</svg>
