<svg width="55" height="54" viewBox="0 0 55 54" fill="none" xmlns="http://www.w3.org/2000/svg">
<path fill-rule="evenodd" clip-rule="evenodd" d="M21.9241 4.48647C22.9094 -1.4955 31.5106 -1.49548 32.4959 4.48647L34.9317 19.2744L49.7196 21.7102C55.7016 22.6955 55.7016 31.2967 49.7196 32.282L34.9317 34.7178L32.4959 49.5057C31.5106 55.4877 22.9094 55.4877 21.9241 49.5057L19.4883 34.7178L4.70033 32.282C-1.28163 31.2967 -1.28161 22.6955 4.70034 21.7102L19.4883 19.2744L21.9241 4.48647ZM30.7339 4.7767C30.077 0.788718 24.3429 0.788724 23.686 4.77669L21.0421 20.8282L4.99056 23.4722C1.00259 24.129 1.00259 29.8632 4.99056 30.52L21.0421 33.164L23.686 49.2155C24.3429 53.2035 30.077 53.2035 30.7339 49.2155L33.3779 33.164L49.4294 30.52C53.4174 29.8632 53.4174 24.129 49.4294 23.4722L33.3779 20.8282L30.7339 4.7767Z" fill="#3300FF"/>
</svg>
