<svg width="38" height="38" viewBox="0 0 38 38" fill="none" xmlns="http://www.w3.org/2000/svg">
<path fill-rule="evenodd" clip-rule="evenodd" d="M23.9029 9.05967C21.9369 8.09014 19.7276 7.72537 17.5542 8.0115C15.3809 8.29762 13.3413 9.22178 11.6932 10.6671C10.2151 11.9634 9.1115 13.6266 8.49028 15.4833L10.9721 14.0504C11.7294 13.6132 12.6978 13.8727 13.135 14.63C13.5722 15.3873 13.3128 16.3556 12.5555 16.7928L6.73793 20.1516C5.98063 20.5888 5.01228 20.3294 4.57505 19.5721L1.2163 13.7545C0.779072 12.9972 1.03854 12.0289 1.79584 11.5917C2.55313 11.1544 3.52149 11.4139 3.95871 12.1712L5.41642 14.696C6.2005 12.2212 7.64732 10.0033 9.60524 8.28629C11.7242 6.428 14.3466 5.23979 17.1409 4.87192C19.9352 4.50405 22.7758 4.97303 25.3035 6.21957C27.8313 7.46611 29.9326 9.43422 31.3418 11.875C31.779 12.6323 31.5195 13.6007 30.7622 14.0379C30.0049 14.4751 29.0366 14.2156 28.5994 13.4583C27.5033 11.56 25.869 10.0292 23.9029 9.05967ZM31.2639 17.8484C32.0212 17.4112 32.9895 17.6707 33.4268 18.428L36.7855 24.2455C37.2228 25.0028 36.9633 25.9711 36.206 26.4084C35.4487 26.8456 34.4803 26.5861 34.0431 25.8288L32.5854 23.304C31.8013 25.7788 30.3545 27.9967 28.3966 29.7137C26.2776 31.572 23.6552 32.7602 20.8609 33.1281C18.0666 33.496 15.226 33.027 12.6983 31.7804C10.1706 30.5339 8.06924 28.5658 6.66005 26.125C6.22283 25.3677 6.48229 24.3994 7.23959 23.9621C7.99689 23.5249 8.96524 23.7844 9.40246 24.5417C10.4985 26.4401 12.1329 27.9708 14.0989 28.9404C16.0649 29.9099 18.2743 30.2746 20.4476 29.9885C22.6209 29.7024 24.6606 28.7782 26.3087 27.3329C27.7867 26.0367 28.8903 24.3734 29.5115 22.5167L27.0297 23.9496C26.2724 24.3868 25.304 24.1273 24.8668 23.37C24.4296 22.6127 24.6891 21.6444 25.4464 21.2072L31.2639 17.8484Z" fill="white"/>
</svg>
