<svg width="112" height="112" viewBox="0 0 112 112" fill="none" xmlns="http://www.w3.org/2000/svg">
<path fill-rule="evenodd" clip-rule="evenodd" d="M9.10557 56.0001C32.8146 60.5316 51.4685 79.1855 55.9999 102.894C60.5314 79.1855 79.1853 60.5316 102.894 56.0001C79.1853 51.4687 60.5314 32.8148 55.9999 9.10578C51.4685 32.8148 32.8146 51.4687 9.10557 56.0001ZM3.15843e-05 54.9833C29.9104 53.9097 53.9095 29.9106 54.9831 0.000248417H57.0168C58.0903 29.9106 82.0895 53.9097 112 54.9833V57.017C82.0895 58.0905 58.0903 82.0897 57.0168 112H54.9831C53.9095 82.0897 29.9104 58.0905 3.15843e-05 57.017V54.9833Z" fill="white"/>
<path fill-rule="evenodd" clip-rule="evenodd" d="M9.10557 56.0001C32.8146 60.5316 51.4685 79.1855 55.9999 102.894C60.5314 79.1855 79.1853 60.5316 102.894 56.0001C79.1853 51.4687 60.5314 32.8148 55.9999 9.10578C51.4685 32.8148 32.8146 51.4687 9.10557 56.0001ZM3.15843e-05 54.9833C29.9104 53.9097 53.9095 29.9106 54.9831 0.000248417H57.0168C58.0903 29.9106 82.0895 53.9097 112 54.9833V57.017C82.0895 58.0905 58.0903 82.0897 57.0168 112H54.9831C53.9095 82.0897 29.9104 58.0905 3.15843e-05 57.017V54.9833Z" fill="white"/>
<path fill-rule="evenodd" clip-rule="evenodd" d="M62.6196 95.1656C64.7835 85.2116 66.1388 71.3634 66.1388 56C66.1388 40.6365 64.7835 26.7883 62.6196 16.8343C61.534 11.8407 60.268 7.9369 58.9286 5.33102C58.2575 4.02535 57.619 3.14705 57.0586 2.61954C56.5078 2.10114 56.1615 2.03503 55.9999 2.03503C55.8384 2.03503 55.492 2.10114 54.9413 2.61954C54.3809 3.14705 53.7423 4.02535 53.0713 5.33102C51.7319 7.9369 50.4658 11.8407 49.3803 16.8343C47.2164 26.7883 45.8611 40.6365 45.8611 56C45.8611 71.3634 47.2164 85.2116 49.3803 95.1656C50.4658 100.159 51.7319 104.063 53.0713 106.669C53.7423 107.975 54.3809 108.853 54.9413 109.38C55.492 109.899 55.8384 109.965 55.9999 109.965C56.1615 109.965 56.5078 109.899 57.0586 109.38C57.619 108.853 58.2575 107.975 58.9286 106.669C60.268 104.063 61.534 100.159 62.6196 95.1656ZM55.9999 112C62.7234 112 68.1739 86.9279 68.1739 56C68.1739 25.072 62.7234 0 55.9999 0C49.2765 0 43.826 25.072 43.826 56C43.826 86.9279 49.2765 112 55.9999 112Z" fill="white"/>
<path fill-rule="evenodd" clip-rule="evenodd" d="M62.6196 95.1656C64.7835 85.2116 66.1388 71.3634 66.1388 56C66.1388 40.6365 64.7835 26.7883 62.6196 16.8343C61.534 11.8407 60.268 7.9369 58.9286 5.33102C58.2575 4.02535 57.619 3.14705 57.0586 2.61954C56.5078 2.10114 56.1615 2.03503 55.9999 2.03503C55.8384 2.03503 55.492 2.10114 54.9413 2.61954C54.3809 3.14705 53.7423 4.02535 53.0713 5.33102C51.7319 7.9369 50.4658 11.8407 49.3803 16.8343C47.2164 26.7883 45.8611 40.6365 45.8611 56C45.8611 71.3634 47.2164 85.2116 49.3803 95.1656C50.4658 100.159 51.7319 104.063 53.0713 106.669C53.7423 107.975 54.3809 108.853 54.9413 109.38C55.492 109.899 55.8384 109.965 55.9999 109.965C56.1615 109.965 56.5078 109.899 57.0586 109.38C57.619 108.853 58.2575 107.975 58.9286 106.669C60.268 104.063 61.534 100.159 62.6196 95.1656ZM55.9999 112C62.7234 112 68.1739 86.9279 68.1739 56C68.1739 25.072 62.7234 0 55.9999 0C49.2765 0 43.826 25.072 43.826 56C43.826 86.9279 49.2765 112 55.9999 112Z" fill="white"/>
<path fill-rule="evenodd" clip-rule="evenodd" d="M16.8343 62.6197C26.7883 64.7836 40.6365 66.1389 56 66.1389C71.3635 66.1389 85.2117 64.7836 95.1657 62.6197C100.159 61.5341 104.063 60.268 106.669 58.9287C107.975 58.2576 108.853 57.619 109.38 57.0586C109.899 56.5079 109.965 56.1616 109.965 56C109.965 55.8384 109.899 55.4921 109.38 54.9414C108.853 54.381 107.975 53.7424 106.669 53.0713C104.063 51.732 100.159 50.4659 95.1657 49.3803C85.2117 47.2164 71.3635 45.8611 56 45.8611C40.6365 45.8611 26.7883 47.2164 16.8343 49.3803C11.8407 50.4659 7.9369 51.732 5.33102 53.0713C4.02535 53.7424 3.14705 54.381 2.61954 54.9414C2.10114 55.4921 2.03503 55.8384 2.03503 56C2.03503 56.1616 2.10114 56.5079 2.61954 57.0586C3.14705 57.619 4.02535 58.2576 5.33102 58.9287C7.9369 60.268 11.8407 61.5341 16.8343 62.6197ZM0 56C-2.93892e-07 62.7235 25.0721 68.1739 56 68.1739C86.928 68.1739 112 62.7235 112 56C112 49.2765 86.928 43.8261 56 43.8261C25.0721 43.8261 2.93892e-07 49.2765 0 56Z" fill="white"/>
<path fill-rule="evenodd" clip-rule="evenodd" d="M16.8343 62.6197C26.7883 64.7836 40.6365 66.1389 56 66.1389C71.3635 66.1389 85.2117 64.7836 95.1657 62.6197C100.159 61.5341 104.063 60.268 106.669 58.9287C107.975 58.2576 108.853 57.619 109.38 57.0586C109.899 56.5079 109.965 56.1616 109.965 56C109.965 55.8384 109.899 55.4921 109.38 54.9414C108.853 54.381 107.975 53.7424 106.669 53.0713C104.063 51.732 100.159 50.4659 95.1657 49.3803C85.2117 47.2164 71.3635 45.8611 56 45.8611C40.6365 45.8611 26.7883 47.2164 16.8343 49.3803C11.8407 50.4659 7.9369 51.732 5.33102 53.0713C4.02535 53.7424 3.14705 54.381 2.61954 54.9414C2.10114 55.4921 2.03503 55.8384 2.03503 56C2.03503 56.1616 2.10114 56.5079 2.61954 57.0586C3.14705 57.619 4.02535 58.2576 5.33102 58.9287C7.9369 60.268 11.8407 61.5341 16.8343 62.6197ZM0 56C-2.93892e-07 62.7235 25.0721 68.1739 56 68.1739C86.928 68.1739 112 62.7235 112 56C112 49.2765 86.928 43.8261 56 43.8261C25.0721 43.8261 2.93892e-07 49.2765 0 56Z" fill="white"/>
</svg>
