<svg width="102" height="102" viewBox="0 0 102 102" fill="none" xmlns="http://www.w3.org/2000/svg">
<path d="M90.9005 19.9948L72.721 38.4094L97.9367 32.603L75.3046 45.1496L101.137 46.6863L75.8889 52.347L100.241 61.0973L74.4184 59.4157L95.3198 74.6707L71.0172 65.7846L86.7716 86.3095L65.9574 70.9361L75.2933 95.0708L59.6547 74.4535L61.8102 100.24L52.6137 76.055L47.4191 101.402L45.4075 75.6057L33.2806 98.4656L38.6195 73.1457L20.5454 91.6618L32.8007 68.8696L10.2398 81.5437L28.4208 63.1318L3.20356 68.9354L25.8357 56.3889L0.00467444 54.8548L25.2529 49.1941L0.900679 40.4438L26.7234 42.1254L5.82464 26.869L30.1245 35.7565L14.3687 15.229L35.1843 30.605L25.8485 6.47035L41.4871 27.0876L39.3301 1.2989L48.528 25.4861L53.7253 0.137274L55.7343 25.9354L67.8612 3.0755L62.5223 28.3954L80.5964 9.87933L68.3396 32.6689L90.9005 19.9948Z" fill="white"/>
</svg>
